<svg xmlns="http://www.w3.org/2000/svg" width="161" height="32" viewBox="0 0 161 32" fill="none">
  <path d="M160.333 11.4755H146.682V31.7691H160.333V11.4755Z" fill="#221D25"/>
  <path d="M160.333 0H146.682V8.25994H160.333V0Z" fill="#221D25"/>
  <path d="M0.333008 0V10.3586H10.6916V20.7172H21.0502V0H0.333008Z" fill="#221D25"/>
  <path d="M25.4784 0H40.4965L31.813 31.769H16.7949L25.4784 0Z" fill="#221D25"/>
  <path d="M97.8927 0.0193481V0.0385974V0.0193481L90.5569 7.35509L83.2404 0.0193481H70.7446V31.7691H83.2404V14.6716L90.5569 21.9881L97.8927 14.6716V31.7691H110.369V0.0193481H97.8927Z" fill="#221D25"/>
  <path d="M132.435 0.0193481H126.062H120.285H113.585V31.7691H126.062V23.2011H132.435C138.846 23.2011 144.025 18.0025 144.025 11.6102C144.025 5.19866 138.827 0.0193481 132.435 0.0193481ZM129.007 14.7486C127.198 14.7486 125.734 13.2853 125.734 11.4754C125.734 9.66556 127.198 8.20227 129.007 8.20227C130.817 8.20227 132.281 9.66556 132.281 11.4754C132.281 13.2853 130.817 14.7486 129.007 14.7486Z" fill="#221D25"/>
  <path d="M56.3039 0.0385102L45.8875 0V10.3586H51.6637C53.4543 10.3586 54.9368 11.7642 55.0331 13.5355H45.926C41.074 13.5355 37.127 17.4826 37.127 22.3346V22.9699C37.127 27.8412 41.074 31.769 45.926 31.769H59.4615H67.5482V11.2828C67.5482 5.06379 62.5229 0.0385102 56.3039 0.0385102ZM52.145 25.8003C50.3352 25.8003 48.8719 24.337 48.8719 22.5271C48.8719 20.7172 50.3352 19.2539 52.145 19.2539C53.9549 19.2539 55.4182 20.7172 55.4182 22.5271C55.4182 24.337 53.9549 25.8003 52.145 25.8003Z" fill="#221D25"/>
</svg>